<?xml version="1.0" encoding="UTF-8"?>
<svg width="100px" height="51px" viewBox="0 0 100 51" version="1.1" xmlns="http://www.w3.org/2000/svg" xmlns:xlink="http://www.w3.org/1999/xlink">
    <title>Logo</title>
    <defs>
        <polygon id="path-1" points="0 0.0333522727 10.6898014 0.0333522727 10.6898014 16.2019129 0 16.2019129"></polygon>
    </defs>
    <g id="Symbols" stroke="none" stroke-width="1" fill="none" fill-rule="evenodd">
        <g id="Logo">
            <rect id="Rectangle" fill="#516E85" x="0" y="0" width="100" height="50.5050505"></rect>
            <g id="Group-12" transform="translate(13.131313, 9.090909)">
                <path d="M34.2100165,24.8897727 C33.7368747,24.8897727 33.3120761,24.8450758 32.9362031,24.7560606 C32.5597476,24.6668561 32.242896,24.5433712 31.9850657,24.3857955 C31.7268472,24.2282197 31.5278442,24.0471591 31.3882508,23.8426136 C31.2484633,23.6378788 31.1787637,23.4198864 31.1787637,23.1888258 L31.1787637,16.1280303 C31.1836175,16.0632576 31.1882771,15.9982955 31.1882771,15.9265152 L31.1882771,15.6020833 C31.2201175,15.2291667 31.3397135,14.8577652 31.5493947,14.488447 C31.7967409,14.0526515 32.1108745,13.6617424 32.4927661,13.3149621 C32.8742694,12.9685606 33.2961558,12.6878788 33.7584253,12.4727273 C34.2205006,12.257197 34.6666556,12.1496212 35.0966963,12.1496212 C35.5694498,12.1496212 36.0130809,12.2181818 36.4270072,12.3543561 C36.8405452,12.4910985 37.2008863,12.7535985 37.5070597,13.1420455 C37.8136214,13.5304924 38.0551431,14.0765152 38.2325956,14.7799242 C38.410048,15.4831439 38.4985801,16.4018939 38.4985801,17.5356061 C38.4985801,22.438447 37.0690589,24.8897727 34.2100165,24.8897727 M41.5944846,13.6361742 C41.2826808,12.6871212 40.8689487,11.9452652 40.3528999,11.4106061 C39.8368511,10.8757576 39.2404245,10.5089015 38.5632318,10.3094697 C37.8860391,10.1104167 37.1709873,10.0107955 36.4186588,10.0107955 C34.1076999,10.0107955 32.3933617,10.9964015 31.2754501,12.9674242 L31.2107984,12.9674242 C31.2107984,12.9674242 31.2022558,12.9558712 31.1882771,12.9373106 L31.1882771,6.23011364 C31.1882771,5.47746212 31.2119633,4.84640152 31.2593357,4.33579545 C31.306514,3.82518939 31.3812614,3.39905303 31.4835781,3.05757576 C31.5858948,2.71590909 31.7179163,2.44526515 31.8790602,2.24564394 C32.0402041,2.04602273 32.2314412,1.88087121 32.4516065,1.75037879 C32.6640058,1.61212121 32.8468944,1.4969697 33.0006606,1.40492424 C33.1540386,1.31268939 33.2777117,1.22462121 33.3722624,1.13996212 C33.4668131,1.05568182 33.5619462,0.954734848 33.6093186,0.854924242 C33.6564969,0.755113636 33.6912496,0.664204545 33.6912496,0.518181818 C33.6912496,0.357007576 33.5704888,0.202840909 33.4287598,0.118371212 C33.287225,0.0339015152 33.128605,0 32.9237775,0 C32.6247876,0 32.2784253,0.134469697 31.8846905,0.403030303 C31.4284397,0.710037879 31.0036411,1.12481061 30.6101005,1.6467803 C30.2163657,2.16893939 29.8762162,2.76382576 29.5888752,3.43162879 C29.3015343,4.09962121 29.0772919,4.82518939 28.9157597,5.60814394 C28.7546158,6.39128788 28.6738497,7.20511364 28.6738497,8.04943182 L28.6738497,10.0924242 C28.6738497,10.0926136 28.6738497,10.092803 28.6738497,10.0931818 L28.6738497,22.6405303 C28.6738497,23.8219697 29.1297122,24.6200758 29.314154,24.8388258 C29.6230455,25.2054924 30.1157964,25.5219697 30.6145659,25.738447 C31.2238064,26.0028409 32.5566412,26.1793562 34.2100165,26.1793562 C35.4354868,26.1793562 36.5341776,25.9856061 37.5070597,25.5975379 C38.4799418,25.2098485 39.3050762,24.6407197 39.9820748,23.8910985 C40.6590733,23.1414773 41.1776461,22.213447 41.5379871,21.107197 C41.8981341,20.000947 42.0781105,18.7295455 42.0781105,17.2929924 C42.0672381,15.8041667 41.9060942,14.5852273 41.5944846,13.6361742" id="Fill-1" fill="#FBF7F2"></path>
                <g id="Group-5" transform="translate(0.000000, 9.977462)">
                    <mask id="mask-2" fill="white">
                        <use xlink:href="#path-1"></use>
                    </mask>
                    <g id="Clip-4"></g>
                    <path d="M10.6898014,1.41725379 C10.6898014,2.25626894 10.2650028,2.67558712 9.41598793,2.67558712 L8.31982107,2.67558712 C7.45973974,2.67558712 6.72100171,2.79111742 6.10283038,3.02160985 C5.48446491,3.25229167 4.97676453,3.55626894 4.57934094,3.93392045 C4.18133491,4.31138258 3.89127588,4.74149621 3.7085814,5.22350379 C3.52569277,5.70607955 3.43444261,6.19888258 3.43444261,6.70191288 L3.43444261,13.9214205 C3.43444261,14.3827841 3.3965835,14.7604356 3.32144772,15.0538068 C3.2461178,15.3475568 3.12535695,15.5782386 2.95877686,15.7460417 C2.79180847,15.9138447 2.57436128,16.0316477 2.30565866,16.0998295 C2.0371502,16.1682008 1.70923206,16.2019129 1.32229254,16.2019129 C0.806243736,16.2019129 0.456775023,16.0788068 0.274468844,15.8325947 C0.0911919192,15.5863826 -5.82447855e-05,15.2060795 -5.82447855e-05,14.6920644 L-5.82447855e-05,1.41725379 C-5.82447855e-05,0.903617424 0.107500459,0.544526515 0.322812016,0.339791667 C0.537541126,0.135435606 0.90293008,0.0333522727 1.41897888,0.0333522727 C2.03171402,0.0333522727 2.50990371,0.264034091 2.85393625,0.725397727 C3.19777463,1.18676136 3.3697909,1.87880682 3.3697909,2.80153409 L3.3697909,3.60342803 L3.43444261,3.60342803 C3.62800945,3.28903409 3.87496734,2.92710227 4.17609288,2.51820076 C4.47702427,2.10929924 4.84260737,1.71876894 5.27245389,1.34642045 C5.70230041,0.974450758 6.20495291,0.662329545 6.78002309,0.410814394 C7.35489912,0.158920455 8.01325935,0.0333522727 8.75510376,0.0333522727 L9.14204329,0.0333522727 C9.69012672,0.0333522727 10.0795902,0.146041667 10.3110161,0.371420455 C10.5418596,0.596799242 10.6682508,0.945473485 10.6898014,1.41725379" id="Fill-3" fill="#FBF7F2" mask="url(#mask-2)"></path>
                </g>
                <path d="M18.4416387,24.8897727 C19.0326291,24.8897727 19.5727525,24.7929924 20.0622028,24.5988636 C20.5510707,24.4049242 20.9731513,24.0560606 21.327862,23.5526515 C21.6825727,23.0496212 21.9567115,22.3573864 22.1500842,21.4765152 C22.3436511,20.5960227 22.4403374,19.4689394 22.4403374,18.0950758 C22.4403374,16.763447 22.3407388,15.6600379 22.1421241,14.7844697 C21.9431211,13.9089015 21.6664583,13.2111742 21.3115535,12.6924242 C20.9568427,12.1731061 20.5349563,11.811553 20.0458943,11.607197 C19.5566381,11.4028409 19.0221451,11.3003788 18.4416387,11.3003788 C17.8826829,11.3003788 17.361198,11.4028409 16.8775721,11.607197 C16.3941404,11.811553 15.9720598,12.1731061 15.6119129,12.6924242 C15.251766,13.2111742 14.9696671,13.9089015 14.7656162,14.7844697 C14.561177,15.6600379 14.4590544,16.763447 14.4590544,18.0950758 C14.4590544,19.4162879 14.5503046,20.5147727 14.7331932,21.3903409 C14.9158877,22.2659091 15.1820664,22.9630682 15.5315351,23.4820076 C15.8806155,24.0011364 16.2995897,24.3655303 16.7888459,24.5751894 C17.2779079,24.7848485 17.8289036,24.8897727 18.4416387,24.8897727 M18.4416387,26.1793561 C17.2485914,26.1793561 16.1815469,26.0119318 15.2412819,25.675947 C14.3004345,25.3407197 13.5077229,24.8344697 12.8629532,24.1585227 C12.2179892,23.4820076 11.7264033,22.6405303 11.3876128,21.6340909 C11.0492105,20.6274621 10.8797182,19.4479167 10.8797182,18.0950758 C10.8797182,16.732197 11.0571707,15.5418561 11.4118814,14.5248106 C11.7667863,13.5077652 12.2715744,12.6662879 12.9276049,12.0003788 C13.5828587,11.3344697 14.3757644,10.8363636 15.3057395,10.5060606 C16.2353262,10.1757576 17.2808201,10.0107955 18.4416387,10.0107955 C19.6131355,10.0107955 20.6665895,10.1757576 21.6018066,10.5060606 C22.5370237,10.8363636 23.3324534,11.3373106 23.9880955,12.0081439 C24.6437376,12.6793561 25.1434779,13.5208333 25.4875104,14.5325758 C25.831543,15.5445076 26.0035592,16.732197 26.0035592,18.0950758 C26.0035592,19.4479167 25.836785,20.6274621 25.503819,21.6340909 C25.1704646,22.6405303 24.6814026,23.4820076 24.0364387,24.1585227 C23.3916689,24.8344697 22.5987632,25.3407197 21.6581099,25.675947 C20.7174566,26.0119318 19.6453643,26.1793561 18.4416387,26.1793561" id="Fill-6" fill="#FBF7F2"></path>
                <path d="M58.0276295,11.6149053 L52.3200289,25.9277841 C52.1051056,26.4520265 51.8711557,26.9997538 51.6185675,27.5713447 C51.3661734,28.1427462 51.0838804,28.698428 50.7722708,29.2387689 C50.4602729,29.7787311 50.1191526,30.2923674 49.7485216,30.7798674 C49.3776964,31.2677462 48.9771665,31.6972917 48.54732,32.0698295 C48.1172793,32.4417992 47.6522917,32.7355492 47.1525515,32.9507008 C46.6528112,33.1652841 46.1179299,33.2728598 45.5482959,33.2728598 C45.0968989,33.2728598 44.7181136,33.1603598 44.4115519,32.9347917 C44.1053785,32.7094129 43.9520005,32.4340341 43.9520005,32.1092235 C43.9520005,31.1442614 44.5486213,30.6620644 45.7418628,30.6620644 C46.3544038,30.6620644 46.8756946,30.5779735 47.3057353,30.4105492 C47.7355818,30.2425568 48.1093192,29.9882008 48.4263649,29.6474811 C48.7432166,29.3067614 49.0229857,28.8715341 49.2648957,28.342178 C49.5066116,27.8126326 49.7405615,27.1861174 49.9663571,26.4626326 L43.4361459,11.6149053 C43.3823665,11.4999432 43.3394595,11.3844129 43.3074249,11.2686932 C43.275002,11.1537311 43.2586934,11.0228598 43.2586934,10.8758902 C43.2586934,10.2991856 43.6671835,10.0107386 44.4843579,10.0107386 C45.0324413,10.0107386 45.5455779,10.1863068 46.0237675,10.5374432 C46.5019572,10.8891477 46.891809,11.431572 47.1929345,12.1654735 L51.513921,22.7035417 L51.6913735,22.7035417 L53.6744143,17.0569508 C53.8464305,16.5747538 54.0613538,15.9196402 54.3195723,15.0908523 C54.5774026,14.2626326 54.8781398,13.2455871 55.2223665,12.0395265 C55.3941886,11.4105492 55.6199843,10.9149053 55.8993651,10.5533523 C56.17894,10.1916098 56.5928663,10.0107386 57.1409498,10.0107386 C57.8394989,10.0107386 58.1891617,10.2571402 58.1891617,10.7499432 C58.1891617,11.0228598 58.1351882,11.310928 58.0276295,11.6149053" id="Fill-8" fill="#FBF7F2"></path>
                <path d="M60.7470397,24.6695833 L60.7470397,11.3947727 C60.7470397,10.8811364 60.8542102,10.5218561 61.0695217,10.3173106 C61.284445,10.1129545 61.6500281,10.0108712 62.1656886,10.0108712 C62.7784237,10.0108712 63.2566134,10.241553 63.6008401,10.7027273 C63.9446785,11.1642803 64.1166947,11.8561364 64.1166947,12.7788636 L64.1166947,12.9991288 L64.1811523,12.9991288 C64.7616587,12.0866288 65.5380617,11.3608712 66.5109437,10.8205303 C67.4840199,10.2805682 68.6314422,10.0108712 69.9534047,10.0108712 C73.0595991,10.0108712 74.6129875,11.6307576 74.6129875,14.8705303 L74.6129875,24.6695833 C74.6129875,25.1834091 74.5215432,25.5637121 74.3390429,25.8099242 C74.1559601,26.0563258 73.8068797,26.1794318 73.2910251,26.1794318 C72.5493748,26.1794318 72.0117754,25.9775379 71.6786152,25.5731818 C71.3452609,25.1690152 71.1786808,24.4892803 71.1786808,23.5341667 L71.1786808,15.4720455 C71.1786808,13.2572727 70.2436579,12.149697 68.3732237,12.149697 C67.8895978,12.149697 67.4003416,12.2495076 66.9062317,12.4491288 C66.4115393,12.6485606 65.9628603,12.9188258 65.5598064,13.2597348 C65.1565583,13.6010227 64.8263104,13.9972348 64.5680918,14.44875 C64.3102616,14.9002652 64.1811523,15.3726136 64.1811523,15.8657955 L64.1811523,23.8962879 C64.1811523,24.3584091 64.1432932,24.73625 64.0683516,25.0301894 C63.9930216,25.3241288 63.8720666,25.5551894 63.7054866,25.7229924 C63.5389065,25.8909848 63.321071,26.0087879 63.0527567,26.0773485 C62.7838599,26.1455303 62.4559418,26.1794318 62.0691964,26.1794318 C61.5531476,26.1794318 61.2036789,26.0563258 61.0211785,25.8099242 C60.8382899,25.5637121 60.7470397,25.1834091 60.7470397,24.6695833" id="Fill-10" fill="#FBF7F2"></path>
            </g>
        </g>
    </g>
</svg>