<?xml version="1.0" encoding="UTF-8"?>
<svg width="386px" height="176px" viewBox="0 0 386 176" version="1.1" xmlns="http://www.w3.org/2000/svg" xmlns:xlink="http://www.w3.org/1999/xlink">
    <title>Group 12</title>
    <defs>
        <polygon id="path-1" points="0 0.1761 55.0597 0.1761 55.0597 85.5461 0 85.5461"></polygon>
    </defs>
    <g id="Symbols" stroke="none" stroke-width="1" fill="none" fill-rule="evenodd">
        <g id="Group-12">
            <path d="M180.205,131.418 C177.768,131.418 175.58,131.182 173.644,130.712 C171.705,130.241 170.073,129.589 168.745,128.757 C167.415,127.925 166.39,126.969 165.671,125.889 C164.951,124.808 164.592,123.657 164.592,122.437 L164.592,85.156 C164.617,84.814 164.641,84.471 164.641,84.092 L164.641,82.379 C164.805,80.41 165.421,78.449 166.501,76.499 C167.775,74.198 169.393,72.134 171.36,70.303 C173.325,68.474 175.498,66.992 177.879,65.856 C180.259,64.718 182.557,64.15 184.772,64.15 C187.207,64.15 189.492,64.512 191.624,65.231 C193.754,65.953 195.61,67.339 197.187,69.39 C198.766,71.441 200.01,74.324 200.924,78.038 C201.838,81.751 202.294,86.602 202.294,92.588 C202.294,118.475 194.931,131.418 180.205,131.418 M218.24,71.999 C216.634,66.988 214.503,63.071 211.845,60.248 C209.187,57.424 206.115,55.487 202.627,54.434 C199.139,53.383 195.456,52.857 191.581,52.857 C179.678,52.857 170.848,58.061 165.09,68.468 L164.757,68.468 C164.757,68.468 164.713,68.407 164.641,68.309 L164.641,32.895 C164.641,28.921 164.763,25.589 165.007,22.893 C165.25,20.197 165.635,17.947 166.162,16.144 C166.689,14.34 167.369,12.911 168.199,11.857 C169.029,10.803 170.014,9.931 171.148,9.242 C172.242,8.512 173.184,7.904 173.976,7.418 C174.766,6.931 175.403,6.466 175.89,6.019 C176.377,5.574 176.867,5.041 177.111,4.514 C177.354,3.987 177.533,3.507 177.533,2.736 C177.533,1.885 176.911,1.071 176.181,0.625 C175.452,0.179 174.635,0 173.58,0 C172.04,0 170.256,0.71 168.228,2.128 C165.878,3.749 163.69,5.939 161.663,8.695 C159.635,11.452 157.883,14.593 156.403,18.119 C154.923,21.646 153.768,25.477 152.936,29.611 C152.106,33.746 151.69,38.043 151.69,42.501 L151.69,53.288 C151.69,53.289 151.69,53.29 151.69,53.292 L151.69,119.542 C151.69,125.78 154.038,129.994 154.988,131.149 C156.579,133.085 159.117,134.756 161.686,135.899 C164.824,137.295 171.689,138.227001 180.205,138.227001 C186.517,138.227001 192.176,137.204 197.187,135.155 C202.198,133.108 206.448,130.103 209.935,126.145 C213.422,122.187 216.093,117.287 217.949,111.446 C219.804,105.605 220.731,98.892 220.731,91.307 C220.675,83.446 219.845,77.01 218.24,71.999" id="Fill-1" fill="#F9F2E8"></path>
            <g id="Group-5" transform="translate(0.000000, 52.681000)">
                <mask id="mask-2" fill="white">
                    <use xlink:href="#path-1"></use>
                </mask>
                <g id="Clip-4"></g>
                <path d="M59.06,7.4831 C59.06,11.9131 56.872,14.1271 52.499,14.1271 L46.853,14.1271 C42.423,14.1271 38.618,14.7371 35.434,15.9541 C32.249,17.1721 29.634,18.7771 27.587,20.7711 C25.537,22.7641 24.043,25.0351 23.102,27.5801 C22.16,30.1281 21.69,32.7301 21.69,35.3861 L21.69,73.5051 C21.69,75.9411 21.495,77.9351 21.108,79.4841 C20.72,81.0351 20.098,82.2531 19.24,83.1391 C18.38,84.0251 17.26,84.6471 15.876,85.0071 C14.493,85.3681 12.804,85.5461 10.811,85.5461 C8.153,85.5461 6.353,84.8961 5.414,83.5961 C4.47,82.2961 4,80.2881 4,77.5741 L4,7.4831 C4,4.7711 4.554,2.8751 5.663,1.7941 C6.769,0.7151 8.651,0.1761 11.309,0.1761 C14.465,0.1761 16.928,1.3941 18.7,3.8301 C20.471,6.2661 21.357,9.9201 21.357,14.7921 L21.357,19.0261 L21.69,19.0261 C22.687,17.3661 23.959,15.4551 25.51,13.2961 C27.06,11.1371 28.943,9.0751 31.157,7.1091 C33.371,5.1451 35.96,3.4971 38.922,2.1691 C41.883,0.8391 45.274,0.1761 49.095,0.1761 L51.088,0.1761 C53.911,0.1761 55.917,0.7711 57.109,1.9611 C58.298,3.1511 58.949,4.9921 59.06,7.4831" id="Fill-3" fill="#F9F2E8" mask="url(#mask-2)"></path>
            </g>
            <path d="M98.9872,131.418 C102.0312,131.418 104.8132,130.907 107.3342,129.882 C109.8522,128.858 112.0262,127.016 113.8532,124.358 C115.6802,121.702 117.0922,118.047 118.0882,113.396 C119.0852,108.747 119.5832,102.796 119.5832,95.542 C119.5832,88.511 119.0702,82.685 118.0472,78.062 C117.0222,73.439 115.5972,69.755 113.7692,67.016 C111.9422,64.274 109.7692,62.365 107.2502,61.286 C104.7302,60.207 101.9772,59.666 98.9872,59.666 C96.1082,59.666 93.4222,60.207 90.9312,61.286 C88.4412,62.365 86.2672,64.274 84.4122,67.016 C82.5572,69.755 81.1042,73.439 80.0532,78.062 C79.0002,82.685 78.4742,88.511 78.4742,95.542 C78.4742,102.518 78.9442,108.318 79.8862,112.941 C80.8272,117.564 82.1982,121.245 83.9982,123.985 C85.7962,126.726 87.9542,128.65 90.4742,129.757 C92.9932,130.864 95.8312,131.418 98.9872,131.418 M98.9872,138.227 C92.8422,138.227 87.3462,137.343 82.5032,135.569 C77.6572,133.799 73.5742,131.126 70.2532,127.557 C66.9312,123.985 64.3992,119.542 62.6542,114.228 C60.9112,108.913 60.0382,102.685 60.0382,95.542 C60.0382,88.346 60.9522,82.061 62.7792,76.691 C64.6072,71.321 67.2072,66.878 70.5862,63.362 C73.9612,59.846 78.0452,57.216 82.8352,55.472 C87.6232,53.728 93.0082,52.857 98.9872,52.857 C105.0212,52.857 110.4472,53.728 115.2642,55.472 C120.0812,57.216 124.1782,59.861 127.5552,63.403 C130.9322,66.947 133.5062,71.39 135.2782,76.732 C137.0502,82.075 137.9362,88.346 137.9362,95.542 C137.9362,102.685 137.0772,108.913 135.3622,114.228 C133.6452,119.542 131.1262,123.985 127.8042,127.557 C124.4832,131.126 120.3992,133.799 115.5542,135.569 C110.7092,137.343 105.1872,138.227 98.9872,138.227" id="Fill-6" fill="#F9F2E8"></path>
            <path d="M302.8818,61.3267 L273.4838,136.8987 C272.3768,139.6667 271.1718,142.5587 269.8708,145.5767 C268.5708,148.5937 267.1168,151.5277 265.5118,154.3807 C263.9048,157.2317 262.1478,159.9437 260.2388,162.5177 C258.3288,165.0937 256.2658,167.3617 254.0518,169.3287 C251.8368,171.2927 249.4418,172.8437 246.8678,173.9797 C244.2938,175.1127 241.5388,175.6807 238.6048,175.6807 C236.2798,175.6807 234.3288,175.0867 232.7498,173.8957 C231.1728,172.7057 230.3828,171.2517 230.3828,169.5367 C230.3828,164.4417 233.4558,161.8957 239.6018,161.8957 C242.7568,161.8957 245.4418,161.4517 247.6568,160.5677 C249.8708,159.6807 251.7958,158.3377 253.4288,156.5387 C255.0608,154.7397 256.5018,152.4417 257.7478,149.6467 C258.9928,146.8507 260.1978,143.5427 261.3608,139.7227 L227.7258,61.3267 C227.4488,60.7197 227.2278,60.1097 227.0628,59.4987 C226.8958,58.8917 226.8118,58.2007 226.8118,57.4247 C226.8118,54.3797 228.9158,52.8567 233.1248,52.8567 C235.9478,52.8567 238.5908,53.7837 241.0538,55.6377 C243.5168,57.4947 245.5248,60.3587 247.0758,64.2337 L269.3318,119.8747 L270.2458,119.8747 L280.4598,90.0607 C281.3458,87.5147 282.4528,84.0557 283.7828,79.6797 C285.1108,75.3067 286.6598,69.9367 288.4328,63.5687 C289.3178,60.2477 290.4808,57.6307 291.9198,55.7217 C293.3598,53.8117 295.4918,52.8567 298.3148,52.8567 C301.9128,52.8567 303.7138,54.1577 303.7138,56.7597 C303.7138,58.2007 303.4358,59.7217 302.8818,61.3267" id="Fill-8" fill="#F9F2E8"></path>
            <path d="M314,130.2554 L314,60.1644 C314,57.4524 314.552,55.5554 315.661,54.4754 C316.768,53.3964 318.651,52.8574 321.307,52.8574 C324.463,52.8574 326.926,54.0754 328.699,56.5104 C330.47,58.9474 331.356,62.6004 331.356,67.4724 L331.356,68.6354 L331.688,68.6354 C334.678,63.8174 338.677,59.9854 343.688,57.1324 C348.7,54.2814 354.61,52.8574 361.419,52.8574 C377.418,52.8574 385.419,61.4104 385.419,78.5164 L385.419,130.2554 C385.419,132.9684 384.948,134.9764 384.008,136.2764 C383.065,137.5774 381.267,138.2274 378.61,138.2274 C374.79,138.2274 372.021,137.1614 370.305,135.0264 C368.588,132.8924 367.73,129.3034 367.73,124.2604 L367.73,81.6924 C367.73,69.9984 362.914,64.1504 353.28,64.1504 C350.789,64.1504 348.269,64.6774 345.724,65.7314 C343.176,66.7844 340.865,68.2114 338.789,70.0114 C336.712,71.8134 335.011,73.9054 333.681,76.2894 C332.353,78.6734 331.688,81.1674 331.688,83.7714 L331.688,126.1724 C331.688,128.6124 331.493,130.6074 331.107,132.1594 C330.719,133.7114 330.096,134.9314 329.238,135.8174 C328.38,136.7044 327.258,137.3264 325.876,137.6884 C324.491,138.0484 322.802,138.2274 320.81,138.2274 C318.152,138.2274 316.352,137.5774 315.412,136.2764 C314.47,134.9764 314,132.9684 314,130.2554" id="Fill-10" fill="#F9F2E8"></path>
        </g>
    </g>
</svg>